<?xml version="1.0" encoding="UTF-8"?>
<svg version="1.1" xmlns="http://www.w3.org/2000/svg" width="110" height="101">
<path d="M0 0 C4.57295404 1.02109066 7.79672213 3.89801871 11.32763672 6.84619141 C12.08109375 7.44109375 12.83455078 8.03599609 13.61083984 8.64892578 C16.74101203 11.15698676 19.14771257 13.17005518 21.39013672 16.53369141 C12.95451287 23.63616489 5.69343079 26.16109406 -5.39111328 25.88916016 C-12.70274864 25.08168586 -18.76200701 21.84263813 -24.60986328 17.53369141 C-24.34535458 14.30080726 -23.56329639 13.49312393 -21.06298828 11.31494141 C-19.47744141 10.18572266 -19.47744141 10.18572266 -17.85986328 9.03369141 C-13.39024202 5.85968747 -13.39024202 5.85968747 -9.28173828 2.25244141 C-5.99962738 0.141142 -3.85740638 -0.18147798 0 0 Z " fill="#FFFFFF" transform="translate(56.60986328125,69.46630859375)"/>
<path d="M0 0 C10.08640928 2.45155781 16.36792195 8.00221976 21.8125 16.74609375 C25.57138297 23.88055255 26.17947553 32.25850292 24 40 C19.06951598 39.23148326 14.53202395 37.54299927 9.875 35.8125 C9.06417969 35.53341797 8.25335938 35.25433594 7.41796875 34.96679688 C3.26984214 33.41382055 1.42936428 32.68445718 -0.9921875 28.82421875 C-1.32476562 27.89222656 -1.65734375 26.96023437 -2 26 C-2.33 25.67 -2.66 25.34 -3 25 C-2.78889641 16.63705006 -1.24150126 8.25658607 0 0 Z " fill="#FFFFFF" transform="translate(63,30)"/>
<path d="M0 0 C1.27041641 6.04372857 2.23695987 12.10639714 2.875 18.25 C2.99617188 19.36890625 3.11734375 20.4878125 3.2421875 21.640625 C2.93541856 25.89580701 1.92937877 28.92143121 -1 32 C-4.20248842 33.93178625 -7.54719366 35.18578111 -11.0625 36.4375 C-11.97322266 36.78748047 -12.88394531 37.13746094 -13.82226562 37.49804688 C-20.46639555 40 -20.46639555 40 -24 40 C-24.53730252 27.97039363 -24.27656053 18.94448769 -16.375 9.1875 C-12.30396619 4.87159197 -6.23661735 0 0 0 Z " fill="#FFFFFF" transform="translate(46,30)"/>
<path d="M0 0 C8.30923318 2.73764471 16.33183809 5.91734761 24.3125 9.5 C25.13524414 9.86730225 25.95798828 10.23460449 26.80566406 10.61303711 C42.71049787 17.84236191 42.71049787 17.84236191 46 23 C46.39605565 26.75172713 45.76300493 30.02335369 43.4375 33 C39.94224107 34.43395238 36.69081447 34.55084288 33 34 C30.24676425 32.78867656 27.95895283 31.11651263 25.5625 29.3125 C24.88872314 28.82716797 24.21494629 28.34183594 23.52075195 27.84179688 C21.32933736 26.25060754 19.16322327 24.62927507 17 23 C16.22688477 22.4229834 15.45376953 21.8459668 14.65722656 21.25146484 C0.65762583 10.78207271 0.65762583 10.78207271 -3 7 C-1.125 1.125 -1.125 1.125 0 0 Z " fill="#FFFFFF" transform="translate(64,63)"/>
<path d="M0 0 C1.75 2.25 1.75 2.25 3 5 C1.81267095 8.48531541 -0.13700393 10.16123022 -3.04296875 12.3203125 C-3.86249023 12.93382568 -4.68201172 13.54733887 -5.52636719 14.17944336 C-6.40454102 14.82147705 -7.28271484 15.46351074 -8.1875 16.125 C-9.08500977 16.7857251 -9.98251953 17.4464502 -10.90722656 18.12719727 C-13.59681859 20.0960724 -16.29747309 22.04893457 -19 24 C-19.75297363 24.55252441 -20.50594727 25.10504883 -21.28173828 25.67431641 C-23.25647626 27.11755331 -25.24792692 28.53252728 -27.25 29.9375 C-27.82000732 30.35596191 -28.39001465 30.77442383 -28.97729492 31.20556641 C-33.53942941 34.31663009 -36.67060887 34.49057157 -42 34 C-44.5 32.5625 -44.5 32.5625 -46 30 C-46.60183722 26.87617822 -46.87171488 24.0753668 -46 21 C-42.1493767 17.11929371 -37.33525128 15.01981212 -32.4375 12.75 C-31.61773682 12.36593994 -30.79797363 11.98187988 -29.95336914 11.58618164 C-23.68704255 8.69006005 -17.34284203 6.01013259 -10.9375 3.4375 C-10.07503662 3.09106445 -9.21257324 2.74462891 -8.32397461 2.38769531 C-2.26370086 0 -2.26370086 0 0 0 Z " fill="#FFFFFF" transform="translate(46,63)"/>
<path d="M0 0 C3.134968 0.80029993 4.31049275 1.96656584 6.21875 4.56640625 C8.69123374 19.40130867 5.8908607 39.40787947 1.21875 53.56640625 C-1.09125 53.56640625 -3.40125 53.56640625 -5.78125 53.56640625 C-13.80494519 12.27112167 -13.80494519 12.27112167 -9.34375 2.37890625 C-6.1002901 0.08475169 -3.89392375 0.00666768 0 0 Z " fill="#FFFFFF" transform="translate(56.78125,-0.56640625)"/>
<path d="M0 0 C-0.1484375 2.32421875 -0.1484375 2.32421875 -1 5 C-3.4765625 6.51953125 -3.4765625 6.51953125 -6.625 7.8125 C-15.39919014 11.88697547 -20.49408035 18.02786154 -24 27 C-24.80508209 29.77569272 -25.11952367 32.22287498 -25.09765625 35.109375 C-25.09443359 35.86347656 -25.09121094 36.61757813 -25.08789062 37.39453125 C-25.07951172 38.17183594 -25.07113281 38.94914062 -25.0625 39.75 C-25.05798828 40.54277344 -25.05347656 41.33554688 -25.04882812 42.15234375 C-25.03708565 44.10159508 -25.01915146 46.05080738 -25 48 C-26.98 48.495 -26.98 48.495 -29 49 C-32.34620608 41.05276056 -31.7643 32.06477815 -29 24 C-24.47363518 13.09557565 -16.97282364 5.11048952 -6.0078125 0.55859375 C-4 0 -4 0 0 0 Z " fill="#FFFFFF" transform="translate(46,24)"/>
<path d="M0 0 C8.25878129 0.4346727 15.86121299 6.00583461 21.3984375 11.87109375 C27.39069244 19.83640825 30.14433647 27.67707202 30.125 37.5 C30.12886719 39.46453125 30.12886719 39.46453125 30.1328125 41.46875 C30.02924755 44.22235924 29.83458014 46.40352847 29 49 C27.35 48.34 25.7 47.68 24 47 C24.09539062 46.40574219 24.19078125 45.81148437 24.2890625 45.19921875 C25.62944897 35.17749201 24.36134118 26.83085942 18.76171875 18.2890625 C13.66384357 11.66521581 7.77283794 7.89682155 0 5 C0 3.35 0 1.7 0 0 Z " fill="#FFFFFF" transform="translate(64,24)"/>
<path d="M0 0 C3.05527746 0.6043406 5.03824644 1.57585599 7.5625 3.375 C15.27466962 8.32974585 24.39161343 10.29154135 33.3984375 8.53125 C39.09130438 7.05986287 43.28327444 4.74301076 47.89453125 1.109375 C50.63839332 -0.33637051 52.09512153 0.1280295 55 1 C52.60423232 6.80754154 47.35428544 9.23424113 42.00390625 12.05078125 C33.12550812 15.70252005 21.06824445 15.40064467 12 12.4375 C6.67500284 10.17865741 2.3221205 6.79919728 -2 3 C-1.34 2.01 -0.68 1.02 0 0 Z " fill="#FFFFFF" transform="translate(28,87)"/>
<path d="M0 0 C2.32749345 3.49124017 2.50299316 4.89222251 2 9 C0.4375 11.375 0.4375 11.375 -2 13 C-5.43182475 13.42145216 -7.81547541 13.6712306 -10.875 11.9375 C-12.6274029 8.91947278 -12.93913078 6.46954545 -13 3 C-9.14071402 -2.2376024 -5.76891353 -2.45485682 0 0 Z " fill="#FFFFFF" transform="translate(60,56)"/>
</svg>
