<?xml version="1.0" encoding="UTF-8"?>
<svg version="1.1" xmlns="http://www.w3.org/2000/svg" width="149" height="90">
<path d="M0 0 C4.36166978 2.41439868 8.74039388 4.79436338 13.13720703 7.14413452 C15.03076403 8.17030147 16.90148799 9.23119762 18.7734375 10.29614258 C26.10253653 14.4238313 26.10253653 14.4238313 34.29296875 14.58984375 C35.87521436 14.10082708 37.44553678 13.57121149 39 13 C40.54442384 12.56158396 42.09132809 12.13180885 43.640625 11.7109375 C44.39408203 11.49115234 45.14753906 11.27136719 45.92382812 11.04492188 C59.63835995 7.09522883 72.93154598 5.86303366 86.0625 12.5625 C88 14 88 14 90 16 C90 19.90074102 89.37144915 21.58727872 86.75 24.5 C76.19780908 32.29357995 63.159875 35.09241463 50.68676758 38.18261719 C48.50557276 38.72761866 46.32906159 39.28899267 44.15234375 39.8515625 C42.87351318 40.16947754 41.59468262 40.48739258 40.27709961 40.81494141 C34.26248703 42.98993429 31.6817363 47.70652658 28.3046875 52.8828125 C27.87116974 53.53829071 27.43765198 54.19376892 26.99099731 54.86911011 C25.61454754 56.95151109 24.24437599 59.03794191 22.875 61.125 C21.49766822 63.21864045 20.11898543 65.31135867 18.73757935 67.40231323 C17.88025719 68.70052907 17.02540809 70.00038223 16.17330933 71.30203247 C13.00031666 76.11501927 11.2699562 78.12929455 5.6875 79.625 C4.27017578 80.01558594 4.27017578 80.01558594 2.82421875 80.4140625 C0 81 0 81 -5 81 C0.445 65.655 0.445 65.655 6 50 C3.36 50.66 0.72 51.32 -2 52 C-12.58009931 53.13791699 -24.01944204 52.78069857 -34 49 C-34.7420166 48.73074707 -35.4840332 48.46149414 -36.24853516 48.18408203 C-53.0728455 41.89847481 -53.0728455 41.89847481 -57.25 33.25 C-58.81044731 29.05503127 -59.2474586 26.31812594 -58 22 C-52.89043797 20.77644587 -49.20840929 20.4478372 -44.5703125 23.16015625 C-43.08080745 24.1156535 -41.59917276 25.0835133 -40.125 26.0625 C-33.33614514 30.44948576 -33.33614514 30.44948576 -25.5625 30.9375 C-23.69547571 30.32983643 -21.8433621 29.67605539 -20 29 C-17.49778284 28.31724007 -14.98532331 27.68354678 -12.47045898 27.04907227 C-8.6348997 26.07635442 -4.81868603 25.03678315 -1 24 C-1 23.34 -1 22.68 -1 22 C-2.28275975 20.67189876 -2.28275975 20.67189876 -4.0078125 19.34765625 C-4.6587085 18.82349121 -5.30960449 18.29932617 -5.98022461 17.75927734 C-6.68800049 17.19934082 -7.39577637 16.6394043 -8.125 16.0625 C-9.19923218 15.19939209 -9.19923218 15.19939209 -10.29516602 14.31884766 C-13.88416489 11.44337923 -17.49977094 8.60518528 -21.14453125 5.80078125 C-21.78438965 5.30634521 -22.42424805 4.81190918 -23.08349609 4.30249023 C-24.29869315 3.36684931 -25.51893012 2.43770988 -26.74462891 1.51586914 C-30.88962711 -1.66888132 -30.88962711 -1.66888132 -32 -5 C-19.29320667 -11.9579389 -11.52697325 -6.4376062 0 0 Z " fill="#FFFFFF" transform="translate(59,9)"/>
</svg>
