<svg id="Layer_1" data-name="Layer 1" xmlns="http://www.w3.org/2000/svg" viewBox="0 0 116.3 101.78">
										<defs>
											<style>
												.cls-1 {
													fill: #3b4143;
												}
											</style>
										</defs>
										<title>engines</title>
										<path class="cls-1" d="M134.41,116.56,117.66,97.89a32.49,32.49,0,0,0-16.16-9.83v-3.9l4.38-.25a1.51,1.51,0,0,0,1-.44L119,71.31a1.17,1.17,0,0,0,.39-.28l4.78-4.89,0,0a1.3,1.3,0,0,0,.18-.23.56.56,0,0,0,.09-.17v0a.44.44,0,0,0,.06-.16,1.49,1.49,0,0,0-.36-1.53L101.53,41.35A1.34,1.34,0,0,0,101,41l-.25-.06a.77.77,0,0,0-.25,0,1.35,1.35,0,0,0-.57.12,1.29,1.29,0,0,0-.5.33l-9.9,9.91a32.25,32.25,0,0,0-1.12-4.48L80.57,23A3.47,3.47,0,0,0,74,23L66.19,46.79a32,32,0,0,0-1.1,4.36l-9.8-9.8a1,1,0,0,0-.23-.19,1.19,1.19,0,0,0-.25-.13l-.2-.06a1.2,1.2,0,0,0-.75,0,.66.66,0,0,0-.2.06,1.43,1.43,0,0,0-.49.32L30.51,64a1.5,1.5,0,0,0,0,2.13L47.84,83.47a1.5,1.5,0,0,0,1,.44l4.39.25V88a32.7,32.7,0,0,0-16.56,9.94L19.9,116.56a3.47,3.47,0,0,0,2.55,5.79,3.81,3.81,0,0,0,.74-.08l24.54-5.17a33,33,0,0,0,5.77-1.78,9.92,9.92,0,0,0,9.52,7H91.53a10,10,0,0,0,9.5-6.94,32.57,32.57,0,0,0,5.54,1.69l24.54,5.17a3.81,3.81,0,0,0,.74.08,3.47,3.47,0,0,0,2.56-5.79Zm-33.93-72L121,65.08l-2.73,2.72L97.78,47.3ZM90,58.26c0-1.07,0-2.14,0-3.2l5.67-5.68,20.55,20.54-11,11-5.23.31a1.49,1.49,0,0,0-1.41,1.49v4.67A37.7,37.7,0,0,0,94.36,87v-.14A17.08,17.08,0,0,0,86.24,72.3,33.74,33.74,0,0,0,90,58.26ZM65.24,94.12a3.12,3.12,0,0,1-.3-.53c-.13-.22-.24-.44-.35-.66s-.2-.42-.28-.63a10.14,10.14,0,0,1-.43-1.16l0,0c-.06-.19-.12-.37-.17-.56s-.06-.23-.08-.35a4.87,4.87,0,0,1-.12-.52,5.1,5.1,0,0,1-.13-.68c0-.23-.07-.47-.09-.71a13.88,13.88,0,0,1-.07-1.44,14.08,14.08,0,0,1,7.72-12.56h0l.08,0a13.73,13.73,0,0,1,1.43-.62l.53-.18.71-.21a15.59,15.59,0,0,1,2-.38c.25,0,.49,0,.74-.06a14.23,14.23,0,0,1,1.6,0c.23,0,.47,0,.7.06s.46.06.69.09a5.73,5.73,0,0,1,.7.13,5.17,5.17,0,0,1,.68.16l.68.2a14.82,14.82,0,0,1,2,.81l.16.07h0a14.12,14.12,0,0,1,7.64,12.52,12.81,12.81,0,0,1-.07,1.39.13.13,0,0,0,0,.06,6.93,6.93,0,0,1-.1.78c0,.2-.07.4-.11.6a3.24,3.24,0,0,1-.09.4,10.34,10.34,0,0,1-.3,1.09,1.34,1.34,0,0,1-.09.26,1.25,1.25,0,0,1-.09.25,5,5,0,0,1-.25.64,6,6,0,0,1-.28.63c-.09.21-.2.41-.31.61s-.33.58-.52.87-.37.56-.58.84a10.54,10.54,0,0,1-.86,1,5.44,5.44,0,0,1-.47.49,5.38,5.38,0,0,1-.49.47,5.18,5.18,0,0,1-.51.44,10.86,10.86,0,0,1-1.08.81,14.06,14.06,0,0,1-16.29-.39,5.13,5.13,0,0,1-.53-.42,6.66,6.66,0,0,1-.51-.44,4.34,4.34,0,0,1-.49-.47,5.38,5.38,0,0,1-.47-.49c-.15-.17-.3-.33-.44-.51s-.29-.35-.42-.53C65.73,94.89,65.48,94.51,65.24,94.12ZM69,47.72l7.79-23.83a.43.43,0,0,1,.45-.32.42.42,0,0,1,.44.32l7.8,23.83a29.68,29.68,0,0,1-2,23.24A12,12,0,0,0,82,70.43l-.77-.2-.68-.16a16,16,0,0,0-1.69-.24q-.4,0-.81-.06l-.81,0h-.13c-.29,0-.57,0-.85,0s-.66,0-1,.09l-.63.08-.75.13h0l-.61.14q-.35.08-.69.18l-.12,0-.06,0h0l-.7.23L71,71A29.64,29.64,0,0,1,69,47.72ZM33.69,65.08,54.23,44.53,57,47.32,36.47,67.86ZM49.56,80.94l-11-11L59.14,49.44l5.49,5.49a30.63,30.63,0,0,0,0,3.71A33.62,33.62,0,0,0,68.32,72.3,17.08,17.08,0,0,0,60.2,86.83V87a35.18,35.18,0,0,0-4,.39V82.74a1.49,1.49,0,0,0-1.41-1.49Zm-2.45,33.23-24.53,5.16a.47.47,0,0,1-.45-.77L38.87,99.89A29.74,29.74,0,0,1,60.48,90a3,3,0,0,0,.07.32c.05.28.12.55.19.82s.14.55.23.81.17.54.27.8.18.48.28.71a8.5,8.5,0,0,0,.36.82s0,0,0,.07c.24.47.49.93.76,1.38a15.33,15.33,0,0,0,1.43,2l.54.62a7.87,7.87,0,0,0,.57.59l.39.38c.17.16.33.31.51.45l0,0,0,0,.06,0a3.52,3.52,0,0,0,.41.36A29.78,29.78,0,0,1,47.11,114.17Zm44.42,5.18H63A6.93,6.93,0,0,1,56.26,114c.48-.25,1-.52,1.43-.8h0a34,34,0,0,0,11.45-11.38,17,17,0,0,0,16,.1,33.71,33.71,0,0,0,11.55,11.36h0c.5.3,1,.57,1.46.83A6.93,6.93,0,0,1,91.53,119.35Zm40.7-.24a.43.43,0,0,1-.5.22l-24.54-5.16a29.76,29.76,0,0,1-19.47-13.83l.18-.15a14.84,14.84,0,0,0,1.45-1.29l.49-.51c.24-.25.46-.51.68-.77s.62-.81.92-1.24A15.77,15.77,0,0,0,92.3,95l.36-.7c.15-.3.28-.6.4-.9s.18-.44.26-.66.19-.53.27-.8.16-.53.23-.81c0,0,0,0,0-.07.08-.35.16-.7.23-1.06a29.68,29.68,0,0,1,21.36,9.93l16.74,18.67A.43.43,0,0,1,132.23,119.11Z" transform="translate(-19 -20.57)"></path>
									</svg>