<?xml version="1.0" encoding="UTF-8"?>
<svg version="1.1" xmlns="http://www.w3.org/2000/svg" width="98" height="96">
<path d="M0 0 C3.77043048 2.82441994 7.13874786 5.807032 8.88671875 10.2578125 C9.05006293 14.21186824 7.79590503 17.53686208 6.4375 21.1875 C6.16156006 21.94272949 5.88562012 22.69795898 5.60131836 23.47607422 C0.8790717 35.99626785 -5.4132078 44.9543199 -17.375 51.25 C-21.1398523 52.32567209 -23.21426224 52.11064231 -27 51 C-30.13353274 48.82399755 -32.75490561 46.26472911 -35.4375 43.5625 C-36.16904297 42.88767578 -36.90058594 42.21285156 -37.65429688 41.51757812 C-41.39395974 37.80584925 -43.48532201 35.17721316 -43.6640625 29.79296875 C-43.02877909 22.12455942 -38.15480847 16.77730384 -32.6875 11.6875 C-24.81352145 5.47580581 -10.10155345 -2.33112772 0 0 Z M-27.5 24.25 C-28.1703125 24.89453125 -28.840625 25.5390625 -29.53125 26.203125 C-31.31643554 28.00033313 -31.31643554 28.00033313 -31 31 C-27.57245533 30.41889329 -25.95461339 29.31446376 -23.546875 26.83984375 C-22.928125 26.21142578 -22.309375 25.58300781 -21.671875 24.93554688 C-20.72054688 23.94651367 -20.72054688 23.94651367 -19.75 22.9375 C-19.1003125 22.27427734 -18.450625 21.61105469 -17.78125 20.92773438 C-16.1805324 19.29170683 -14.58723807 17.64909088 -13 16 C-13.33 15.01 -13.66 14.02 -14 13 C-18.07161874 13 -24.66742849 21.52346058 -27.5 24.25 Z M-15.0625 28.875 C-15.82111328 29.62136719 -16.57972656 30.36773437 -17.36132812 31.13671875 C-18.07869141 31.85214844 -18.79605469 32.56757812 -19.53515625 33.3046875 C-20.53107788 34.2944458 -20.53107788 34.2944458 -21.54711914 35.30419922 C-23.21687343 36.88095602 -23.21687343 36.88095602 -23 39 C-19.57245533 38.41889329 -17.95461339 37.31446376 -15.546875 34.83984375 C-14.928125 34.21142578 -14.309375 33.58300781 -13.671875 32.93554688 C-12.72054688 31.94651367 -12.72054688 31.94651367 -11.75 30.9375 C-11.1003125 30.27427734 -10.450625 29.61105469 -9.78125 28.92773438 C-8.1805324 27.29170683 -6.58723807 25.64909088 -5 24 C-5.33 23.01 -5.66 22.02 -6 21 C-8.97051519 21 -13.05038908 26.86460736 -15.0625 28.875 Z " fill="#FFFFFF" transform="translate(43,44)"/>
<path d="M0 0 C3.86736776 2.48337468 7.32718962 5.05539406 10.6875 8.1875 C14.29493229 11.50067044 17.98383408 14.63282315 21.8125 17.6875 C32.49089147 26.35992245 32.49089147 26.35992245 34 33 C34.35999732 38.93481291 33.52385687 42.97948854 29.625 47.5625 C26.68293245 50.67357994 24.64837466 51.85490497 20.29296875 52.23828125 C15.75572742 52.34671846 12.04393108 52.42985397 7.8125 50.6875 C4.32330946 47.35338459 1.36476155 43.74147943 -1.60546875 39.94140625 C-3.96423299 37.04393565 -6.49326343 34.46060818 -9.125 31.8125 C-12.87842857 27.68763839 -12.87842857 27.68763839 -13.375 24.87890625 C-13.11824271 22.82083607 -12.58273425 20.98696192 -12 19 C-12.061875 17.1128125 -12.061875 17.1128125 -12.125 15.1875 C-11.44782255 8.78625652 -4.53832194 4.06729347 0 0 Z " fill="#FFFFFF" transform="translate(64,40)"/>
<path d="M0 0 C6.22534694 2.82860424 10.94516043 8.06060152 13.57421875 14.3515625 C13.98828125 16.7890625 13.98828125 16.7890625 14.19921875 19.3515625 C14.27398437 20.1971875 14.34875 21.0428125 14.42578125 21.9140625 C14.55625003 24.05649728 14.57421875 26.20515879 14.57421875 28.3515625 C15.23421875 28.6815625 15.89421875 29.0115625 16.57421875 29.3515625 C14.32641372 34.36416772 10.95353074 38.06344121 6.57421875 41.3515625 C3.98106899 42.26115964 1.6087989 42.70637172 -1.11328125 43.05078125 C-3.61498127 43.28536685 -3.61498127 43.28536685 -6.55078125 44.5390625 C-11.95661373 46.06679777 -16.0912689 44.94979218 -21.05078125 42.7265625 C-25.84255831 39.70017699 -29.2778953 35.6473344 -31.80078125 30.6015625 C-32.70717842 25.88829723 -32.95678034 21.13055434 -32.42578125 16.3515625 C-31.76578125 15.6915625 -31.10578125 15.0315625 -30.42578125 14.3515625 C-26.60052682 14.3515625 -25.37615475 15.39807889 -22.55859375 18.0390625 C-21.03407615 19.68697447 -19.54353254 21.35981956 -18.0625 23.046875 C-15.22237397 26.1009326 -13.85213566 27.24486321 -9.6640625 28.29296875 C-6.53086173 28.61777954 -6.53086173 28.61777954 -4.48828125 27.2890625 C-2.86791436 24.33427583 -2.91693779 22.70440703 -3.42578125 19.3515625 C-5.46822395 16.68423004 -7.92286919 14.51897353 -10.42578125 12.2890625 C-17.31207596 6.11399707 -17.31207596 6.11399707 -17.86328125 2.41796875 C-17.71890625 1.73605469 -17.57453125 1.05414062 -17.42578125 0.3515625 C-12.54093253 -2.09086186 -5.1603258 -1.37941076 0 0 Z " fill="#FFFFFF" transform="translate(37.42578125,0.6484375)"/>
<path d="M0 0 C2.3125 1.625 2.3125 1.625 4 4 C4.7721817 8.96402519 3.63546336 12.76728612 1 17 C-0.92393494 17.75410461 -0.92393494 17.75410461 -3.19116211 18.3059082 C-8.39363508 19.89685129 -11.31332376 22.5254675 -15.00390625 26.41796875 C-15.61266098 27.03521317 -16.22141571 27.65245758 -16.84861755 28.28840637 C-18.76794229 30.24101125 -20.66520233 32.21350973 -22.5625 34.1875 C-23.86903339 35.52416546 -25.17696429 36.85946643 -26.48632812 38.19335938 C-29.67391774 41.44669587 -32.84190597 44.71803424 -36 48 C-39.32759923 46.44805246 -41.48580485 44.69378051 -44 42 C-42.36910831 37.75469692 -39.18412676 35.01890616 -35.96875 31.94921875 C-34.75347671 30.76411219 -33.53864664 29.57855099 -32.32421875 28.39257812 C-30.41350722 26.53757319 -28.49920398 24.68673702 -26.57666016 22.84399414 C-24.71683895 21.05702748 -22.87329821 19.25447678 -21.03125 17.44921875 C-20.45725464 16.90730392 -19.88325928 16.3653891 -19.29187012 15.80705261 C-15.47716816 12.04116762 -14.19635053 9.20900178 -13 4 C-9.60217058 1.00720985 -4.49271816 -0.99838181 0 0 Z " fill="#FFFFFF" transform="translate(88,3)"/>
</svg>
