<svg id="Layer_1" data-name="Layer 1" xmlns="http://www.w3.org/2000/svg" viewBox="0 0 139.33 70">
										<defs>
											<style>
												.cls-1 {
													fill: #3b4143;
												}
											</style>
										</defs>
										<title>parts-products</title>
										<path class="cls-1" d="M79.19,51.83A13.67,13.67,0,0,0,97,34.2a1.55,1.55,0,0,0-1.09-.93,1.5,1.5,0,0,0-1.37.41l-8.71,8.71A6.41,6.41,0,0,1,81,37.51l8.7-8.7a1.49,1.49,0,0,0,.41-1.37,1.51,1.51,0,0,0-.93-1.09A13.67,13.67,0,0,0,71.5,44.15L40.59,75.07a9,9,0,1,0-2.1,17.87,8.44,8.44,0,0,0,.87,0,9,9,0,0,0,8.91-10.23ZM45.59,81.19a1.51,1.51,0,0,0-.38,1.49,6,6,0,0,1-10.88,4.6,6,6,0,0,1,5-9.3,5.9,5.9,0,0,1,1.25.13,1.49,1.49,0,0,0,1.54-.36L74.35,45.54a1.49,1.49,0,0,0,.29-1.72,10.67,10.67,0,0,1,11-15.28l-7.39,7.39a1.54,1.54,0,0,0-.44,1.22,9.42,9.42,0,0,0,8.33,8.33,1.48,1.48,0,0,0,1.22-.43l7.4-7.4A10.68,10.68,0,0,1,79.52,48.7a1.52,1.52,0,0,0-1.3,0,1.45,1.45,0,0,0-.45.33Z" transform="translate(-30.33 -25.44)"></path>
										<path class="cls-1" d="M169.23,30.63l-4.48-4.48a1.5,1.5,0,0,0-1.93-.16L145,38.62a1.49,1.49,0,0,0-.54,1.75l1.08,2.86-20,20-.58-.58a4.59,4.59,0,0,0-6.5,0L103,78.17a4.61,4.61,0,0,0,0,6.5l7.76,7.76a4.59,4.59,0,0,0,6.5,0l15.56-15.56a4.59,4.59,0,0,0,0-6.5l-.58-.58,19.95-20L155,50.91a1.49,1.49,0,0,0,1.75-.54l12.63-17.81A1.49,1.49,0,0,0,169.23,30.63ZM130.65,74.74,115.09,90.31a1.61,1.61,0,0,1-2.26,0l-7.76-7.76a1.61,1.61,0,0,1,0-2.26l15.57-15.56a1.58,1.58,0,0,1,1.12-.47,1.6,1.6,0,0,1,1.13.47l1.64,1.64L129,70.85l1.64,1.64a1.58,1.58,0,0,1,0,2.25Zm24.33-27-2.69-1a1.47,1.47,0,0,0-1.58.34L130.07,67.67l-2.36-2.36,20.64-20.64a1.47,1.47,0,0,0,.34-1.58l-1-2.69,15.84-11.23,2.68,2.68Z" transform="translate(-30.33 -25.44)"></path>
										<path class="cls-1" d="M107.32,67.49a10,10,0,0,0,2.67-9.3,41.9,41.9,0,0,0,8.09-5.55,41.62,41.62,0,0,0,7.24-8.29l9.7-14.6a1.5,1.5,0,0,0-.18-1.89l-2-2a1.49,1.49,0,0,0-1.89-.19l-14.6,9.7a41.6,41.6,0,0,0-13.84,15.34,10,10,0,0,0-12,12A41.6,41.6,0,0,0,75.22,76.53l-9.7,14.6A1.49,1.49,0,0,0,65.71,93l2,2a1.49,1.49,0,0,0,1.06.44,1.52,1.52,0,0,0,.83-.25l14.59-9.7A41.51,41.51,0,0,0,98,70.15a10,10,0,0,0,2.25.25,9.9,9.9,0,0,0,3.75-.73A9.74,9.74,0,0,0,107.32,67.49ZM69,92l-.25-.25,9-13.57A38.57,38.57,0,0,1,91.27,65.71,6.41,6.41,0,0,0,95,69.45,38.53,38.53,0,0,1,82.52,83ZM95.34,65.37a7,7,0,1,1,9.86,0A7,7,0,0,1,95.34,65.37Zm36.26-36.5.25.25-9,13.57a38.62,38.62,0,0,1-13.54,12.48,6.39,6.39,0,0,0-3.74-3.74A38.62,38.62,0,0,1,118,37.89Z" transform="translate(-30.33 -25.44)"></path>
									</svg>