<svg id="Layer_1" data-name="Layer 1" xmlns="http://www.w3.org/2000/svg" viewBox="0 0 85.94 75.73">
										<defs>
											<style>
												.cls-1 {
													fill: #3b4143;
												}
											</style>
										</defs>
										<title>real-estate</title>
										<path class="cls-1" d="M93.25,38.84v-15H78.34v4.8l-12-8.25L22.94,49.56l1.67,2.49L32.19,47V96.08h68.26V47.42L107.18,52l1.7-2.47Zm-11.91-12h8.91v10l-8.91-6.12ZM46.06,93.08l-.2-24.61A20.09,20.09,0,0,1,77.35,51.76l.11.08A20.09,20.09,0,0,1,86.14,68.2l.21,24.88ZM97.45,45.43V93.08h-8.1l-.21-24.9a23.1,23.1,0,0,0-10-18.81l-.11-.07a23.08,23.08,0,0,0-36.2,19.19l.2,24.59H35.19V44.93L66.31,24,97.56,45.43Z" transform="translate(-22.94 -20.35)"></path>
									</svg>