<?xml version="1.0" encoding="UTF-8"?>
<svg version="1.1" xmlns="http://www.w3.org/2000/svg" width="236" height="88">
<path d="M0 0 C6.76617222 0.67661722 12.98118716 1.49697393 19.53295898 3.02539062 C20.42692886 3.22875534 21.32089874 3.43212006 22.24195862 3.64164734 C25.16137768 4.30732983 28.07872499 4.98164405 30.99609375 5.65625 C33.03716487 6.12374112 35.07835028 6.59073352 37.11964417 7.05725098 C41.37936466 8.03204338 45.63815892 9.01074822 49.89624023 9.99267578 C55.35822857 11.25220733 60.82171052 12.50510242 66.28579617 13.75550079 C71.50221876 14.94944952 76.7179555 16.14638033 81.93359375 17.34375 C82.9291522 17.57210037 83.92471066 17.80045074 84.95043755 18.03572083 C87.75827174 18.68038343 90.56561633 19.32713256 93.37280273 19.97460938 C94.62346024 20.26140816 94.62346024 20.26140816 95.89938354 20.55400085 C98.98160615 21.26678045 101.99680233 21.99893411 105 23 C105 39.83 105 56.66 105 74 C121.335 74.495 121.335 74.495 138 75 C138.33 75.66 138.66 76.32 139 77 C133.80438084 78.48125633 128.51815015 78.38247234 123.1484375 78.55859375 C121.86085541 78.60084579 120.57327332 78.64309784 119.24667358 78.68663025 C97.59647167 79.32777778 75.92293525 79.10930897 54.26605225 79.06866455 C47.04422541 79.0564375 39.82238973 79.05201049 32.60055542 79.04621124 C21.73368582 79.03664417 10.86687259 79.01743349 0 79 C0 52.93 0 26.86 0 0 Z M14 37 C14 49.21 14 61.42 14 74 C20.6 74 27.2 74 34 74 C34 62.45 34 50.9 34 39 C22.03905743 36.82259995 22.03905743 36.82259995 14 37 Z M42 40 C42 51.22 42 62.44 42 74 C48.93 74 55.86 74 63 74 C63 63.77 63 53.54 63 43 C52.20618063 40.88578483 52.20618063 40.88578483 42 40 Z M71 44 C71 53.9 71 63.8 71 74 C77.6 74 84.2 74 91 74 C91 64.76 91 55.52 91 46 C87.4421875 45.505 87.4421875 45.505 83.8125 45 C82.70612183 44.84337891 82.70612183 44.84337891 81.57739258 44.68359375 C77.97703311 44.19349755 74.65448013 44 71 44 Z " fill="#FFFFFF" transform="translate(97,0)"/>
<path d="M0 0 C0 26.07 0 52.14 0 79 C-59.42574337 79.13755959 -59.42574337 79.13755959 -77.375 78.625 C-78.64085938 78.59414307 -79.90671875 78.56328613 -81.2109375 78.53149414 C-82.3453125 78.4927417 -83.4796875 78.45398926 -84.6484375 78.4140625 C-86.07422119 78.36693115 -86.07422119 78.36693115 -87.52880859 78.31884766 C-90.08826772 77.98861118 -91.78578538 77.29503318 -94 76 C-91.00024157 74.50012078 -87.88075764 74.76088992 -84.5859375 74.68359375 C-83.93923096 74.66494263 -83.29252441 74.6462915 -82.6262207 74.6270752 C-80.20928676 74.55875147 -77.79212686 74.49861933 -75.375 74.4375 C-69.97125 74.293125 -64.5675 74.14875 -59 74 C-59 57.17 -59 40.34 -59 23 C-22.1161064 7.58583551 -22.1161064 7.58583551 -10.9375 3.0625 C-10.14956055 2.73958984 -9.36162109 2.41667969 -8.54980469 2.08398438 C-5.54637838 0.8793359 -3.26807667 0 0 0 Z M-11 18 C-11 36.48 -11 54.96 -11 74 C-10.01 74 -9.02 74 -8 74 C-8 55.52 -8 37.04 -8 18 C-8.99 18 -9.98 18 -11 18 Z M-21 21 C-21 38.49 -21 55.98 -21 74 C-20.01 74 -19.02 74 -18 74 C-18 56.51 -18 39.02 -18 21 C-18.99 21 -19.98 21 -21 21 Z M-31 24 C-31 40.5 -31 57 -31 74 C-30.01 74 -29.02 74 -28 74 C-28 57.17 -28 40.34 -28 23 C-29.2236068 22.9254644 -29.2236068 22.9254644 -31 24 Z M-41 27 C-41 42.51 -41 58.02 -41 74 C-40.01 74 -39.02 74 -38 74 C-38 58.16 -38 42.32 -38 26 C-39.2236068 25.9254644 -39.2236068 25.9254644 -41 27 Z M-51 30 C-51 44.52 -51 59.04 -51 74 C-50.01 74 -49.02 74 -48 74 C-48 59.15 -48 44.3 -48 29 C-49.2236068 28.9254644 -49.2236068 28.9254644 -51 30 Z " fill="#FFFFFF" transform="translate(94,0)"/>
<path d="M0 0 C2.64639848 -0.00067542 5.29279559 -0.00164646 7.93919373 -0.00289917 C13.45678213 -0.00470485 18.97435702 -0.0023568 24.49194336 0.00244141 C30.8221986 0.00788362 37.15242162 0.00611513 43.48267609 0.000615 C48.97200941 -0.00395898 54.46133318 -0.00454601 59.9506678 -0.00194633 C63.20550164 -0.00040725 66.46031748 -0.00053085 69.71515083 -0.00348282 C83.30277699 -0.01310649 96.81947679 0.07865342 110.37109375 1.1328125 C110.37109375 1.7928125 110.37109375 2.4528125 110.37109375 3.1328125 C102.82962137 4.14825785 95.42766441 4.27458027 87.82421875 4.26220703 C86.47790479 4.26356463 85.13159121 4.26534657 83.78527832 4.26751709 C80.15308204 4.27204877 76.52091439 4.27031951 72.88871765 4.267138 C69.07327197 4.26459226 65.2578286 4.26695809 61.44238281 4.26852417 C55.03710494 4.27033942 48.63183862 4.26795648 42.2265625 4.26318359 C34.83922016 4.25774222 27.45190542 4.25950533 20.06456375 4.26501 C13.70250844 4.2695595 7.34046141 4.27018269 0.978405 4.26757133 C-2.81286318 4.26601866 -6.60411841 4.26578698 -10.39538574 4.26910782 C-13.96099631 4.27201329 -17.52657156 4.26996201 -21.09217834 4.26421356 C-23.01193189 4.26227772 -24.93168845 4.26521701 -26.85144043 4.26834106 C-33.19647402 4.25292393 -39.33896858 3.97974101 -45.62890625 3.1328125 C-45.62890625 2.4728125 -45.62890625 1.8128125 -45.62890625 1.1328125 C-30.41852036 0.03501623 -15.24431463 -0.01383836 0 0 Z " fill="#FFFFFF" transform="translate(85.62890625,83.8671875)"/>
</svg>
