<svg id="Layer_1" data-name="Layer 1" xmlns="http://www.w3.org/2000/svg" viewBox="0 0 89.11 76.15">
										<defs>
											<style>
												.cls-1 {
													fill: #3b4143;
												}
											</style>
										</defs>
										<title>aircraft2</title>
										<path class="cls-1" d="M87.6,65.46h0A2.61,2.61,0,0,0,89,65L96.16,62a2.07,2.07,0,0,0,.32-.19,2.12,2.12,0,0,0,.26-.25,3.19,3.19,0,0,0,.28-.32,2.91,2.91,0,0,0,.18-.32l.12-.24h0l0-.08v0c0-.05,0-.11,0-.16s0-.22,0-.33a2.58,2.58,0,0,0,0-.39,3,3,0,0,0,0-.39,2.07,2.07,0,0,0,0-.22,1.62,1.62,0,0,0-.06-.22,1.5,1.5,0,0,0-.16-.34,1.75,1.75,0,0,0-.2-.35,1.36,1.36,0,0,0-.24-.27,1.54,1.54,0,0,0-.29-.28,1.35,1.35,0,0,0-.33-.19l-7.15-3a2.65,2.65,0,0,0-1.42-.42h0l-8.91,0L61.9,22.51a1.51,1.51,0,0,0-1.32-.79h0l-5.61,0a1.53,1.53,0,0,0-1.1.48,1.51,1.51,0,0,0-.39,1.13l2.26,30.84L43.27,55.48a1.77,1.77,0,0,1-1.43-.5l-6.62-6.6A1.49,1.49,0,0,0,34.16,48H28.92a1.5,1.5,0,0,0-1.33,2.18l4.93,9.74-4.86,9.78A1.5,1.5,0,0,0,29,71.83h0l5.23,0a1.49,1.49,0,0,0,1-.42l6.85-6.63a1.77,1.77,0,0,1,1.4-.5l12.24,1.16L53.72,96.27a1.53,1.53,0,0,0,.41,1.13,1.5,1.5,0,0,0,1.09.47h0l5.61,0a1.5,1.5,0,0,0,1.32-.8L78.69,65.49ZM76.45,63.3,59.92,94.85h-3.1l2-30.69a1.48,1.48,0,0,0-1.35-1.59l-13.69-1.3a3.39,3.39,0,0,0-.45,0A4.75,4.75,0,0,0,40,62.6l-6.42,6.21H31.43l4.11-8.27a1.53,1.53,0,0,0,0-1.35L31.37,51h2.17l6.18,6.15a4.74,4.74,0,0,0,3.86,1.37L57.48,57a1.5,1.5,0,0,0,1.34-1.6L56.58,24.73h3.1L76.42,56.16a1.52,1.52,0,0,0,1.33.79h0l9.7,0a1.27,1.27,0,0,0,.23.12l6.19,2.63L87.7,62.34l-.23.12-9.7,0A1.5,1.5,0,0,0,76.45,63.3Z" transform="translate(-15.6 -21.72)"></path>
										<path class="cls-1" d="M18.6,59.8A18.79,18.79,0,0,1,37.37,41H52.13V38H37.37a21.78,21.78,0,0,0,0,43.55H52.13v-3H37.37A18.79,18.79,0,0,1,18.6,59.8Z" transform="translate(-15.6 -21.72)"></path>
										<path class="cls-1" d="M82.93,38h-8.8v3h8.8a18.78,18.78,0,1,1,0,37.55h-8.8v3h8.8a21.78,21.78,0,1,0,0-43.55Z" transform="translate(-15.6 -21.72)"></path>
									</svg>